<svg id="visual" viewBox="0 0 540 960" width="540" height="960" xmlns="http://www.w3.org/2000/svg" xmlns:xlink="http://www.w3.org/1999/xlink" version="1.1"><path d="M0 605L77 676L154 685L231 652L309 681L386 568L463 687L540 585L540 961L463 961L386 961L309 961L231 961L154 961L77 961L0 961Z" fill="#888277"></path><path d="M0 669L77 738L154 741L231 673L309 705L386 668L463 743L540 653L540 961L463 961L386 961L309 961L231 961L154 961L77 961L0 961Z" fill="#80736e"></path><path d="M0 731L77 732L154 750L231 750L309 767L386 726L463 770L540 778L540 961L463 961L386 961L309 961L231 961L154 961L77 961L0 961Z" fill="#736667"></path><path d="M0 836L77 806L154 772L231 837L309 857L386 820L463 826L540 775L540 961L463 961L386 961L309 961L231 961L154 961L77 961L0 961Z" fill="#635a5f"></path><path d="M0 860L77 869L154 902L231 909L309 871L386 874L463 892L540 899L540 961L463 961L386 961L309 961L231 961L154 961L77 961L0 961Z" fill="#514f56"></path></svg>