<svg id="visual" viewBox="0 0 540 960" width="540" height="960" xmlns="http://www.w3.org/2000/svg" xmlns:xlink="http://www.w3.org/1999/xlink" version="1.1"><path d="M0 567L11.3 567C22.7 567 45.3 567 67.8 566.2C90.3 565.3 112.7 563.7 135.2 550.5C157.7 537.3 180.3 512.7 202.8 503.7C225.3 494.7 247.7 501.3 270.2 501.5C292.7 501.7 315.3 495.3 337.8 488.3C360.3 481.3 382.7 473.7 405.2 471.5C427.7 469.3 450.3 472.7 472.8 483.5C495.3 494.3 517.7 512.7 528.8 521.8L540 531L540 0L528.8 0C517.7 0 495.3 0 472.8 0C450.3 0 427.7 0 405.2 0C382.7 0 360.3 0 337.8 0C315.3 0 292.7 0 270.2 0C247.7 0 225.3 0 202.8 0C180.3 0 157.7 0 135.2 0C112.7 0 90.3 0 67.8 0C45.3 0 22.7 0 11.3 0L0 0Z" fill="#1f52bf" stroke-linecap="round" stroke-linejoin="miter"></path></svg>