<svg id="visual" viewBox="0 0 540 960" width="540" height="960" xmlns="http://www.w3.org/2000/svg" xmlns:xlink="http://www.w3.org/1999/xlink" version="1.1"><path d="M0 267L10 259.7C20 252.3 40 237.7 60 226.7C80 215.7 100 208.3 120 216C140 223.7 160 246.3 180 250.3C200 254.3 220 239.7 240 224.5C260 209.3 280 193.7 300 194.8C320 196 340 214 360 224.8C380 235.7 400 239.3 420 244.7C440 250 460 257 480 254.8C500 252.7 520 241.3 530 235.7L540 230L540 0L530 0C520 0 500 0 480 0C460 0 440 0 420 0C400 0 380 0 360 0C340 0 320 0 300 0C280 0 260 0 240 0C220 0 200 0 180 0C160 0 140 0 120 0C100 0 80 0 60 0C40 0 20 0 10 0L0 0Z" fill="#1f52bf" stroke-linecap="round" stroke-linejoin="miter"></path></svg>